<?xml version="1.0" encoding="UTF-8" standalone="no"?>
<svg
   xmlns:dc="http://purl.org/dc/elements/1.1/"
   xmlns:cc="http://creativecommons.org/ns#"
   xmlns:rdf="http://www.w3.org/1999/02/22-rdf-syntax-ns#"
   xmlns:svg="http://www.w3.org/2000/svg"
   xmlns="http://www.w3.org/2000/svg"
   xmlns:sodipodi="http://sodipodi.sourceforge.net/DTD/sodipodi-0.dtd"
   xmlns:inkscape="http://www.inkscape.org/namespaces/inkscape"
   id="Layer_1"
   data-name="Layer 1"
   viewBox="0 0 180 40"
   version="1.1"
   sodipodi:docname="logo_mapineq1.svg"
   width="180"
   height="40"
   inkscape:version="0.92.3 (2405546, 2018-03-11)">
  <metadata
     id="metadata867">
    <rdf:RDF>
      <cc:Work
         rdf:about="">
        <dc:format>image/svg+xml</dc:format>
        <dc:type
           rdf:resource="http://purl.org/dc/dcmitype/StillImage" />
        <dc:title></dc:title>
      </cc:Work>
    </rdf:RDF>
  </metadata>
  <sodipodi:namedview
     pagecolor="#ffffff"
     bordercolor="#666666"
     borderopacity="1"
     objecttolerance="10"
     gridtolerance="10"
     guidetolerance="10"
     inkscape:pageopacity="0"
     inkscape:pageshadow="2"
     inkscape:window-width="2560"
     inkscape:window-height="1377"
     id="namedview865"
     showgrid="false"
     fit-margin-top="0"
     fit-margin-left="0"
     fit-margin-right="0"
     fit-margin-bottom="0"
     inkscape:zoom="7.6132812"
     inkscape:cx="90.171072"
     inkscape:cy="20.11"
     inkscape:window-x="1912"
     inkscape:window-y="-8"
     inkscape:window-maximized="1"
     inkscape:current-layer="Layer_1" />
  <defs
     id="defs844">
    <style
       id="style842">
      .cls-1 {
        fill: #fff;
        stroke-width: 0px;
      }
    </style>
  </defs>
  <path
     inkscape:connector-curvature="0"
     class="cls-1"
     d="m 0.445,19.462105 c 0.04,-0.22 0.11,-0.43 0.12,-0.65 0.25,-4.04 1.59,-7.69 4.07,-10.89 3.01,-3.89 6.96,-6.34 11.78,-7.36 1.51,-0.32 3.04,-0.45 4.58,-0.39 9.62,0.35 17.02,7.24 18.79,15.73 0.34,1.61 0.48,3.24 0.41,4.89 -0.38,9.01 -6.66,16.36 -15.03,18.45 -1.18,0.3 -2.38,0.49 -3.6,0.54 -0.09,0 -0.18,0.04 -0.27,0.06 h -1.84 c -0.09,-0.02 -0.18,-0.06 -0.27,-0.06 -0.92,-0.04 -1.83,-0.16 -2.74,-0.35 -4.7,-0.99 -8.58,-3.34 -11.59,-7.09 -2.61,-3.26 -4.03,-6.99 -4.28,-11.16 -0.01,-0.22 -0.08,-0.43 -0.12,-0.64 0,-0.36 0,-0.72 0,-1.08 z m 8.43,-6.18 c 2.23,-0.39 4.44,-0.63 6.65,-0.76 0.02,-0.05 0.03,-0.07 0.04,-0.09 0,-0.03 0,-0.06 0,-0.09 -0.21,-1.57 0.25,-2.92 1.31,-4.08 0.08,-0.09 0.14,-0.21 0.17,-0.32 0.18,-0.67 0.35,-1.35 0.52,-2.03 0.02,-0.06 0.02,-0.12 0.03,-0.2 -0.08,0 -0.14,-0.02 -0.2,-0.01 -1.49,0.12 -2.97,0.31 -4.43,0.61 -0.25,0.05 -0.44,0.16 -0.6,0.36 -1.56,1.88 -2.69,3.99 -3.42,6.32 -0.02,0.08 -0.04,0.16 -0.07,0.3 z m 7.41,20.61 c 0.07,-0.41 0.06,-5.93 -0.01,-6.16 -0.06,0 -0.12,-0.02 -0.18,-0.03 -0.71,-0.09 -1.43,-0.16 -2.14,-0.27 -1.74,-0.26 -3.45,-0.65 -5.11,-1.21 -0.06,-0.02 -0.13,-0.02 -0.22,-0.03 0.02,0.1 0.02,0.18 0.04,0.25 0.59,2.22 1.52,4.28 2.84,6.15 0.12,0.17 0.26,0.26 0.45,0.32 1.01,0.32 2.03,0.58 3.07,0.77 0.41,0.08 0.83,0.14 1.26,0.21 z m 15.58,-20.58 c -0.03,-0.14 -0.05,-0.23 -0.08,-0.32 -0.72,-2.3 -1.83,-4.39 -3.36,-6.25 -0.19,-0.23 -0.41,-0.37 -0.7,-0.43 -1.24,-0.25 -2.48,-0.43 -3.73,-0.56 -0.28,-0.03 -0.56,-0.04 -0.86,-0.06 0.01,0.09 0.02,0.14 0.03,0.19 0.16,0.63 0.33,1.27 0.49,1.91 0.05,0.2 0.14,0.36 0.28,0.52 1,1.09 1.46,2.36 1.31,3.84 -0.01,0.12 0,0.24 0,0.39 2.22,0.13 4.4,0.37 6.63,0.78 z m -7.4,20.56 c 1.57,-0.22 3.06,-0.56 4.51,-1.07 0.12,-0.04 0.23,-0.15 0.3,-0.26 1.32,-1.88 2.24,-3.95 2.82,-6.17 0.02,-0.08 0.02,-0.16 0.04,-0.28 -2.5,0.88 -5.05,1.36 -7.66,1.61 v 6.16 z m -8.22,-6.94 c -0.02,-0.14 -0.02,-0.25 -0.04,-0.35 -0.24,-1.09 -0.76,-2.03 -1.57,-2.81 -0.45,-0.43 -0.97,-0.74 -1.51,-1.05 -1.62,-0.93 -3.24,-1.87 -4.87,-2.8 -0.1,-0.06 -0.2,-0.16 -0.34,-0.13 0,0.05 -0.02,0.09 -0.02,0.13 0,0.5 0.02,0.99 0.03,1.49 0.03,1.11 0.16,2.21 0.35,3.31 0.09,0.49 0.09,0.48 0.58,0.66 2.04,0.73 4.15,1.17 6.29,1.44 0.35,0.05 0.71,0.07 1.09,0.11 z m 8.27,-0.02 c 0.19,0 0.34,0 0.48,-0.03 1.15,-0.18 2.3,-0.35 3.44,-0.57 1.26,-0.24 2.48,-0.62 3.68,-1.06 0.18,-0.07 0.28,-0.15 0.3,-0.35 0.07,-0.58 0.19,-1.15 0.25,-1.72 0.08,-0.8 0.12,-1.6 0.17,-2.4 0.02,-0.32 0,-0.65 0,-1.01 -0.13,0.06 -0.2,0.09 -0.27,0.13 -1.81,1.05 -3.63,2.09 -5.44,3.14 -0.8,0.47 -1.44,1.11 -1.91,1.9 -0.35,0.6 -0.6,1.23 -0.7,1.98 z m -14.25,5.36 c 0,0 0.03,-0.03 0.04,-0.05 -0.03,-0.05 -0.05,-0.11 -0.08,-0.16 -1.15,-1.86 -1.94,-3.87 -2.44,-5.99 -0.04,-0.19 -0.13,-0.28 -0.31,-0.35 -1.8,-0.72 -3.47,-1.65 -4.98,-2.88 -0.05,-0.04 -0.11,-0.06 -0.18,-0.09 0,0.05 -0.02,0.07 -0.01,0.09 0.29,1.82 0.84,3.56 1.65,5.21 0.07,0.14 0.17,0.27 0.28,0.37 1.7,1.59 3.63,2.83 5.76,3.76 0.08,0.04 0.17,0.06 0.26,0.1 z m 20.19,-0.09 c 0.06,0.01 0.08,0.02 0.1,0.02 0.07,-0.02 0.14,-0.05 0.21,-0.08 2.17,-0.96 4.12,-2.25 5.83,-3.89 0.13,-0.13 0.25,-0.29 0.33,-0.46 0.7,-1.46 1.17,-2.99 1.46,-4.58 0.03,-0.17 0.05,-0.34 0.07,-0.51 -0.05,0 -0.07,0 -0.07,0 -0.04,0.02 -0.07,0.04 -0.11,0.07 -1.51,1.23 -3.19,2.18 -5,2.92 -0.17,0.07 -0.26,0.17 -0.31,0.36 -0.49,2.12 -1.28,4.12 -2.41,5.97 -0.03,0.05 -0.06,0.11 -0.1,0.19 z m -22.94,-7.34 c -0.01,-0.13 -0.02,-0.21 -0.03,-0.3 -0.1,-0.84 -0.22,-1.68 -0.28,-2.52 -0.06,-0.83 -0.05,-1.67 -0.06,-2.51 0,-0.17 -0.05,-0.27 -0.2,-0.35 -1.43,-0.82 -2.86,-1.65 -4.29,-2.47 -0.07,-0.04 -0.14,-0.06 -0.26,-0.11 -0.07,0.53 -0.15,1.02 -0.21,1.51 -0.12,1.03 -0.14,2.07 -0.06,3.1 0.01,0.18 0.08,0.31 0.21,0.43 1.47,1.32 3.14,2.34 4.94,3.13 0.06,0.02 0.12,0.04 0.23,0.08 z m 30.81,-8.25 c -0.14,0.07 -0.23,0.12 -0.32,0.17 -1.36,0.79 -2.73,1.58 -4.1,2.36 -0.23,0.13 -0.32,0.27 -0.32,0.54 0.04,1.56 -0.05,3.11 -0.29,4.64 -0.02,0.15 -0.04,0.3 -0.06,0.49 0.11,-0.04 0.18,-0.06 0.25,-0.08 1.7,-0.75 3.27,-1.72 4.7,-2.93 0.33,-0.28 0.46,-0.58 0.47,-1 0.02,-1.01 0,-2.01 -0.13,-3.01 -0.05,-0.38 -0.12,-0.76 -0.19,-1.18 z m -30.31,-3.13 c 0.69,-2.44 1.75,-4.67 3.33,-6.73 -0.14,0.02 -0.2,0.02 -0.26,0.04 -1.76,0.5 -3.45,1.15 -5.04,2.05 -0.12,0.07 -0.25,0.17 -0.33,0.29 -0.45,0.68 -0.89,1.37 -1.32,2.05 -0.04,0.07 -0.07,0.15 -0.1,0.22 0.45,0.35 3.45,2.04 3.72,2.08 z m 21.49,-6.69 c 0,0 -0.03,0.04 -0.04,0.06 1.53,2.01 2.59,4.25 3.27,6.66 0.28,-0.07 3.47,-1.89 3.72,-2.12 -0.04,-0.08 -0.07,-0.17 -0.12,-0.25 -0.37,-0.58 -0.74,-1.16 -1.1,-1.74 -0.15,-0.24 -0.35,-0.41 -0.6,-0.55 -1.55,-0.86 -3.19,-1.52 -4.89,-2.01 -0.08,-0.02 -0.16,-0.04 -0.24,-0.05 z m -4.73,11.08 c 0.15,-0.05 0.26,-0.07 0.37,-0.12 0.58,-0.26 1.18,-0.49 1.73,-0.79 1.58,-0.88 3.14,-1.8 4.71,-2.7 0.05,-0.03 0.1,-0.09 0.18,-0.16 -2.27,-0.42 -4.5,-0.66 -6.75,-0.79 -0.11,0.23 -0.2,0.45 -0.31,0.65 -0.09,0.15 -0.12,0.31 -0.11,0.48 0.06,0.96 0.1,1.92 0.15,2.88 0,0.17 0.03,0.33 0.04,0.56 z m -15.8,-3.75 c 0.13,0.08 0.22,0.14 0.31,0.19 1.32,0.76 2.64,1.52 3.96,2.29 0.76,0.44 1.54,0.84 2.37,1.15 0.11,0.04 0.21,0.07 0.36,0.12 0.02,-0.27 0.04,-0.49 0.05,-0.72 0.04,-0.8 0.09,-1.6 0.12,-2.41 0.01,-0.21 0.06,-0.44 0,-0.63 -0.08,-0.28 -0.24,-0.53 -0.36,-0.79 -1.15,-0.03 -5.94,0.5 -6.8,0.8 z m 14.99,4.01 c 0,-0.36 0,-0.69 0,-1.02 0,-0.33 -0.03,-0.65 -0.05,-0.98 -0.02,-0.32 0,-0.64 -0.07,-0.96 -2.35,1.87 -4.65,1.85 -6.98,-0.05 -0.05,1.02 -0.13,1.99 -0.11,3 2.41,0.66 4.79,0.66 7.21,0.01 z m 1.45,19.38 c 0,0 0.02,0.04 0.04,0.06 2.04,-0.59 3.92,-1.51 5.63,-2.76 1.7,-1.24 4.04,-3.68 4.33,-4.51 -0.02,0 -0.04,0 -0.06,0 -0.05,0.03 -0.11,0.07 -0.16,0.11 -1.64,1.22 -3.42,2.18 -5.34,2.9 -0.18,0.07 -0.31,0.16 -0.42,0.31 -1.08,1.42 -2.34,2.64 -3.78,3.69 -0.08,0.06 -0.16,0.13 -0.24,0.19 z m -10.09,0.01 c -0.07,-0.06 -0.14,-0.12 -0.21,-0.18 -1.45,-1.05 -2.72,-2.28 -3.81,-3.71 -0.1,-0.12 -0.21,-0.2 -0.35,-0.25 -1.89,-0.69 -3.66,-1.61 -5.29,-2.79 -0.06,-0.05 -0.13,-0.08 -0.2,-0.12 -0.01,0.02 -0.03,0.03 -0.04,0.05 1.17,1.66 2.58,3.08 4.22,4.28 1.72,1.25 3.6,2.18 5.68,2.71 z m 18.2,-30.09 c -0.7,-1.03 -3.37,-2.98 -5.33,-3.91 -1.24,-0.59 -2.52,-1.04 -3.88,-1.29 0.07,0.09 0.15,0.15 0.24,0.2 1.4,0.86 2.66,1.88 3.77,3.08 0.16,0.17 0.33,0.27 0.56,0.33 1.08,0.25 2.14,0.59 3.18,0.99 0.47,0.18 0.94,0.38 1.47,0.6 z m -17.1,-5.17 c 0,0 -0.02,-0.05 -0.03,-0.07 -1.61,0.35 -3.14,0.92 -4.6,1.7 -1.67,0.89 -3.16,2 -4.45,3.38 0.1,0 0.19,-0.03 0.28,-0.06 1.39,-0.61 2.83,-1.07 4.3,-1.42 0.2,-0.05 0.34,-0.13 0.48,-0.28 1.12,-1.21 2.39,-2.24 3.8,-3.1 0.08,-0.05 0.15,-0.1 0.22,-0.15 z m 10.66,3.17 c 0,0 0.04,-0.07 0.06,-0.1 -0.09,-0.07 -0.19,-0.13 -0.28,-0.2 -0.58,-0.47 -1.15,-0.96 -1.76,-1.41 -1.01,-0.74 -2.1,-1.33 -3.26,-1.81 -0.13,-0.05 -0.27,-0.08 -0.43,-0.13 0.03,0.09 0.03,0.12 0.05,0.14 0.54,0.88 0.96,1.81 1.3,2.78 0.07,0.2 0.18,0.24 0.37,0.26 0.94,0.09 1.87,0.19 2.8,0.3 0.39,0.04 0.77,0.11 1.15,0.17 z m -7.77,-3.6 c -0.94,-0.03 -5.13,2.63 -5.65,3.58 0.12,-0.02 0.22,-0.02 0.32,-0.04 1.19,-0.2 2.39,-0.34 3.59,-0.41 0.24,-0.01 0.34,-0.1 0.42,-0.32 0.33,-0.93 0.73,-1.83 1.25,-2.67 0.03,-0.04 0.04,-0.09 0.07,-0.14 z m 2.68,3.04 c -0.41,-1.13 -0.89,-2.18 -1.6,-3.13 -0.51,0.48 -1.56,2.55 -1.6,3.13 z m 0.72,2.5 c 0,-0.08 0,-0.12 0,-0.15 -0.13,-0.46 -0.26,-0.91 -0.38,-1.37 -0.05,-0.17 -0.16,-0.2 -0.31,-0.2 -1.11,0 -2.22,0 -3.33,0 -0.18,0 -0.26,0.08 -0.31,0.25 -0.09,0.34 -0.19,0.67 -0.28,1 -0.04,0.15 -0.07,0.3 -0.12,0.52 1.6,-0.8 3.15,-0.81 4.72,-0.03 z m 1.75,29.84 c 0.75,-0.48 1.39,-0.98 2.01,-1.52 0.9,-0.79 1.57,-1.5 1.67,-1.76 -1.22,0.26 -2.44,0.51 -3.68,0.77 v 2.5 z m -8.15,-2.52 c -0.44,-0.07 -0.85,-0.14 -1.25,-0.21 -0.42,-0.08 -0.83,-0.17 -1.24,-0.25 -0.39,-0.08 -0.77,-0.22 -1.21,-0.28 0.59,0.88 3.12,3.06 3.7,3.2 z"
     id="path846"
     style="fill:#ffffff;fill-opacity:1;stroke-width:0px" />
  <path
     inkscape:connector-curvature="0"
     class="cls-1"
     d="m 179.545,33.372105 c -0.68,0 -1.35,0.01 -2.03,0.02 -0.52,0 -1.04,0 -1.6,0 0,-2.49 0,-4.96 0,-7.48 -0.09,0.07 -0.15,0.1 -0.19,0.15 -1.1,1.15 -2.46,1.72 -4.03,1.86 -1.29,0.11 -2.56,-0.02 -3.78,-0.48 -2.49,-0.95 -4.03,-2.75 -4.61,-5.33 -0.41,-1.78 -0.36,-3.56 0.32,-5.28 1.05,-2.65 3.02,-4.19 5.82,-4.68 1.26,-0.22 2.51,-0.17 3.74,0.19 1.06,0.31 1.98,0.86 2.71,1.69 0.04,0.05 0.07,0.11 0.14,0.14 0.08,-0.66 0.04,-1.3 0.07,-1.96 h 3.45 v 21.14 z m -12.82,-13.18 c 0.03,0.21 0.04,0.63 0.13,1.03 0.4,1.8 1.46,3 3.25,3.49 0.6,0.16 1.21,0.19 1.83,0.11 1.84,-0.24 3.1,-1.23 3.74,-2.96 0.37,-0.99 0.4,-2.04 0.18,-3.07 -0.4,-1.85 -1.51,-3.06 -3.36,-3.54 -0.49,-0.13 -1,-0.14 -1.51,-0.11 -1.46,0.09 -2.61,0.73 -3.44,1.93 -0.6,0.88 -0.8,1.87 -0.82,3.12 z"
     id="path848"
     style="fill:#ffffff;fill-opacity:1;stroke-width:0px" />
  <path
     inkscape:connector-curvature="0"
     class="cls-1"
     d="m 51.485,7.402105 h 3.1 c 2.68,4.48 5.37,8.96 8.08,13.48 0.09,-0.14 0.15,-0.23 0.21,-0.33 2.52,-4.28 5.05,-8.57 7.56,-12.86 0.14,-0.23 0.28,-0.31 0.55,-0.31 0.78,0.02 1.57,0 2.35,0 h 0.36 c 0.01,0.09 0.03,0.16 0.03,0.23 0,0.04 0,0.08 0,0.13 0,3.4 0.02,6.79 0.02,10.19 0,3.2 0,6.39 0,9.59 0,0.06 0,0.12 -0.01,0.21 h -3.52 c -0.01,-0.07 -0.02,-0.15 -0.03,-0.23 0,-0.05 0,-0.11 0,-0.16 0,-2.24 0,-4.49 -0.01,-6.73 0,-2 -0.02,-4 -0.02,-6 0,-0.07 0,-0.15 0,-0.25 -0.15,0.07 -0.19,0.2 -0.25,0.3 -1.72,2.87 -3.44,5.73 -5.16,8.6 -0.38,0.64 -0.77,1.27 -1.14,1.91 -0.12,0.2 -0.25,0.28 -0.48,0.26 -0.35,-0.02 -0.7,-0.02 -1.05,0 -0.23,0.01 -0.36,-0.07 -0.48,-0.27 -1.04,-1.73 -2.1,-3.45 -3.15,-5.18 -1.05,-1.72 -2.09,-3.43 -3.14,-5.15 -0.06,-0.1 -0.12,-0.19 -0.24,-0.27 v 13.16 h -3.6 v -20.33 z"
     id="path850"
     style="fill:#ffffff;fill-opacity:1;stroke-width:0px" />
  <path
     inkscape:connector-curvature="0"
     class="cls-1"
     d="m 101.395,25.942105 v 7.38 c -0.24,0.08 -2.97,0.11 -3.59,0.05 -0.07,-0.22 -0.09,-20.75 -0.01,-21.13 h 3.41 v 1.96 c 0.08,-0.06 0.13,-0.08 0.16,-0.11 1.03,-1.17 2.36,-1.76 3.88,-1.96 1.39,-0.19 2.77,-0.07 4.1,0.42 2.54,0.95 4.11,2.78 4.7,5.4 0.42,1.86 0.32,3.71 -0.44,5.48 -1.03,2.39 -2.87,3.82 -5.41,4.35 -1.25,0.26 -2.5,0.26 -3.75,-0.05 -1.06,-0.26 -1.98,-0.78 -2.76,-1.55 -0.07,-0.07 -0.14,-0.13 -0.21,-0.2 0,0 -0.02,0 -0.08,-0.03 z m 9.2,-5.99 c -0.06,-0.44 -0.08,-0.89 -0.18,-1.32 -0.4,-1.68 -1.4,-2.81 -3.06,-3.33 -0.56,-0.18 -1.14,-0.21 -1.73,-0.17 -1.73,0.12 -3.03,0.92 -3.78,2.48 -0.75,1.55 -0.73,3.16 -0.01,4.72 0.53,1.16 1.45,1.93 2.68,2.31 0.65,0.2 1.32,0.25 2.01,0.17 1.82,-0.22 3.05,-1.2 3.72,-2.89 0.25,-0.63 0.32,-1.29 0.35,-1.96 z"
     id="path852"
     style="fill:#ffffff;fill-opacity:1;stroke-width:0px" />
  <path
     inkscape:connector-curvature="0"
     class="cls-1"
     d="m 90.095,14.082105 v -1.81 c 0.24,-0.07 3.15,-0.09 3.61,-0.03 v 15.48 h -3.42 v -1.93 c -0.08,0.05 -0.13,0.07 -0.16,0.1 -0.94,1.07 -2.14,1.67 -3.53,1.91 -1.7,0.3 -3.36,0.14 -4.94,-0.56 -1.99,-0.88 -3.32,-2.38 -3.98,-4.45 -0.6,-1.87 -0.62,-3.78 0,-5.65 0.89,-2.69 2.78,-4.31 5.53,-4.92 1.29,-0.29 2.58,-0.29 3.87,0.05 1.07,0.28 2,0.8 2.78,1.58 0.06,0.06 0.12,0.11 0.24,0.22 z m -9.18,6.09 c 0.02,0.2 0.03,0.59 0.11,0.97 0.33,1.65 1.25,2.82 2.84,3.42 0.72,0.27 1.48,0.32 2.25,0.24 1.78,-0.18 3.28,-1.4 3.8,-3.11 0.26,-0.85 0.31,-1.73 0.18,-2.61 -0.22,-1.53 -0.98,-2.71 -2.35,-3.46 -0.8,-0.44 -1.68,-0.57 -2.58,-0.5 -1.87,0.13 -3.17,1.08 -3.9,2.79 -0.28,0.65 -0.35,1.35 -0.36,2.24 z"
     id="path854"
     style="fill:#ffffff;fill-opacity:1;stroke-width:0px" />
  <path
     inkscape:connector-curvature="0"
     class="cls-1"
     d="m 157.855,23.202105 c 0.65,0.74 1.28,1.47 1.93,2.22 -0.07,0.09 -0.13,0.16 -0.19,0.23 -0.99,1.07 -2.22,1.71 -3.63,2.03 -2.05,0.46 -4.09,0.41 -6.06,-0.35 -2.8,-1.09 -4.45,-3.14 -4.87,-6.13 -0.26,-1.84 0,-3.61 0.92,-5.25 1.14,-2.02 2.88,-3.23 5.13,-3.71 1.47,-0.32 2.95,-0.29 4.39,0.16 2.75,0.85 4.44,2.73 5.12,5.51 0.26,1.04 0.3,2.11 0.17,3.21 -0.68,0.04 -1.35,0.01 -2.02,0.02 -0.68,0 -1.36,0 -2.03,0 h -6.07 c -0.68,0 -1.35,0 -2.06,0 0.02,0.11 0.02,0.2 0.04,0.27 0.35,1.43 1.21,2.45 2.56,2.99 1.8,0.73 3.6,0.66 5.34,-0.23 0.36,-0.19 0.68,-0.46 1.01,-0.71 0.1,-0.07 0.19,-0.17 0.31,-0.27 z m -9.28,-4.52 c 0.29,0.08 8.53,0.07 8.79,0 0,-0.02 0.01,-0.04 0.01,-0.06 -0.28,-1.65 -1.17,-2.81 -2.74,-3.41 -0.71,-0.27 -1.45,-0.31 -2.19,-0.24 -0.91,0.09 -1.72,0.41 -2.42,1.02 -0.83,0.72 -1.29,1.63 -1.45,2.7 z"
     id="path856"
     style="fill:#ffffff;fill-opacity:1;stroke-width:0px" />
  <path
     inkscape:connector-curvature="0"
     class="cls-1"
     d="m 129.785,27.732105 h -3.64 v -15.49 h 3.45 v 1.92 c 0.07,-0.04 0.11,-0.05 0.13,-0.08 0.96,-1.06 2.17,-1.64 3.55,-1.89 1.36,-0.25 2.72,-0.24 4.05,0.19 2.13,0.68 3.42,2.14 3.91,4.32 0.15,0.68 0.21,1.38 0.21,2.08 0,2.87 0,5.73 0,8.6 0,0.11 0,0.23 0,0.36 h -3.63 v -0.38 c 0,-2.63 0,-5.27 0,-7.9 0,-0.68 -0.05,-1.35 -0.27,-2 -0.43,-1.25 -1.31,-1.96 -2.61,-2.17 -0.65,-0.11 -1.31,-0.09 -1.96,0.05 -1.66,0.36 -2.67,1.4 -3.05,3.03 -0.11,0.46 -0.15,0.94 -0.15,1.41 -0.01,2.52 0,5.04 0,7.55 0,0.13 0,0.25 0,0.41 z"
     id="path858"
     style="fill:#ffffff;fill-opacity:1;stroke-width:0px" />
  <path
     inkscape:connector-curvature="0"
     class="cls-1"
     d="m 117.755,12.232105 h 3.59 v 15.49 h -3.59 z"
     id="path860"
     style="fill:#ffffff;fill-opacity:1;stroke-width:0px" />
  <path
     inkscape:connector-curvature="0"
     class="cls-1"
     d="m 119.535,9.642105 c -0.36,0.01 -0.71,-0.05 -1.04,-0.21 -0.78,-0.39 -1.24,-1.01 -1.27,-1.9 -0.02,-0.9 0.4,-1.57 1.19,-1.97 0.79,-0.39 1.6,-0.37 2.38,0.04 1.46,0.78 1.32,2.67 0.3,3.51 -0.45,0.37 -0.97,0.54 -1.57,0.53 z"
     id="path862"
     style="fill:#ffffff;fill-opacity:1;stroke-width:0px" />
</svg>
